<svg xmlns="http://www.w3.org/2000/svg" xmlns:xlink="http://www.w3.org/1999/xlink" width="200" zoomAndPan="magnify" viewBox="0 0 150 149.999998" height="200" preserveAspectRatio="xMidYMid meet" version="1.2"><defs><clipPath id="8a2cb8a68b"><path d="M 1 0.722656 L 121.277344 0.722656 L 121.277344 121 L 1 121 Z M 1 0.722656 "/></clipPath><clipPath id="aae477f9e5"><path d="M 61.140625 0.722656 C 27.925781 0.722656 1 27.644531 1 60.859375 C 1 94.074219 27.925781 121 61.140625 121 C 94.355469 121 121.277344 94.074219 121.277344 60.859375 C 121.277344 27.644531 94.355469 0.722656 61.140625 0.722656 Z M 61.140625 0.722656 "/></clipPath><clipPath id="0614a73382"><path d="M 0 0.722656 L 120.277344 0.722656 L 120.277344 121 L 0 121 Z M 0 0.722656 "/></clipPath><clipPath id="4203c2d87a"><path d="M 60.140625 0.722656 C 26.925781 0.722656 0 27.644531 0 60.859375 C 0 94.074219 26.925781 121 60.140625 121 C 93.355469 121 120.277344 94.074219 120.277344 60.859375 C 120.277344 27.644531 93.355469 0.722656 60.140625 0.722656 Z M 60.140625 0.722656 "/></clipPath><clipPath id="348c161676"><rect x="0" width="121" y="0" height="121"/></clipPath><clipPath id="df56a977f6"><path d="M 8.972656 8.976562 L 113 8.976562 L 113 113 L 8.972656 113 Z M 8.972656 8.976562 "/></clipPath><clipPath id="e94e1d3d6f"><path d="M 8.589844 8.421875 L 113.425781 8.421875 L 113.425781 113.257812 L 8.589844 113.257812 Z M 8.589844 8.421875 "/></clipPath><clipPath id="80968c456d"><path d="M 8.148438 8.148438 L 113.585938 8.148438 L 113.585938 113.589844 L 8.148438 113.589844 Z M 8.148438 8.148438 "/></clipPath><clipPath id="10809457e7"><rect x="0" width="122" y="0" height="122"/></clipPath></defs><g id="2bcf12b3a7"><g transform="matrix(1,0,0,1,14,14)"><g clip-path="url(#10809457e7)"><g clip-rule="nonzero" clip-path="url(#8a2cb8a68b)"><g clip-rule="nonzero" clip-path="url(#aae477f9e5)"><g transform="matrix(1,0,0,1,1,-0.000000000000007105)"><g id="5dd511b117" clip-path="url(#348c161676)"><g clip-rule="nonzero" clip-path="url(#0614a73382)"><g clip-rule="nonzero" clip-path="url(#4203c2d87a)"><path style=" stroke:none;fill-rule:nonzero;fill:#000000;fill-opacity:1;" d="M 0 0.722656 L 120.277344 0.722656 L 120.277344 121 L 0 121 Z M 0 0.722656 "/></g></g></g></g></g></g><g clip-rule="nonzero" clip-path="url(#df56a977f6)"><path style=" stroke:none;fill-rule:nonzero;fill:#ff6d4d;fill-opacity:1;" d="M 112.972656 60.972656 C 112.972656 62.675781 112.890625 64.375 112.722656 66.066406 C 112.558594 67.761719 112.308594 69.445312 111.976562 71.117188 C 111.644531 72.785156 111.230469 74.4375 110.734375 76.066406 C 110.242188 77.695312 109.667969 79.296875 109.015625 80.871094 C 108.363281 82.445312 107.636719 83.984375 106.832031 85.484375 C 106.03125 86.988281 105.15625 88.445312 104.210938 89.863281 C 103.265625 91.28125 102.25 92.644531 101.167969 93.960938 C 100.089844 95.277344 98.945312 96.539062 97.742188 97.742188 C 96.539062 98.949219 95.277344 100.089844 93.960938 101.171875 C 92.644531 102.25 91.277344 103.265625 89.863281 104.210938 C 88.445312 105.15625 86.988281 106.03125 85.484375 106.835938 C 83.984375 107.636719 82.445312 108.363281 80.871094 109.015625 C 79.296875 109.667969 77.695312 110.242188 76.066406 110.734375 C 74.4375 111.230469 72.785156 111.644531 71.117188 111.976562 C 69.445312 112.308594 67.761719 112.558594 66.066406 112.726562 C 64.371094 112.890625 62.671875 112.976562 60.96875 112.976562 C 59.265625 112.976562 57.566406 112.890625 55.871094 112.726562 C 54.175781 112.558594 52.496094 112.308594 50.824219 111.976562 C 49.152344 111.644531 47.503906 111.230469 45.875 110.734375 C 44.242188 110.242188 42.640625 109.667969 41.070312 109.015625 C 39.496094 108.363281 37.957031 107.636719 36.457031 106.835938 C 34.953125 106.03125 33.492188 105.15625 32.078125 104.210938 C 30.660156 103.265625 29.296875 102.25 27.980469 101.171875 C 26.660156 100.089844 25.402344 98.949219 24.195312 97.742188 C 22.992188 96.539062 21.851562 95.277344 20.769531 93.960938 C 19.6875 92.644531 18.675781 91.28125 17.730469 89.863281 C 16.785156 88.445312 15.910156 86.988281 15.105469 85.484375 C 14.304688 83.984375 13.574219 82.445312 12.925781 80.871094 C 12.273438 79.296875 11.699219 77.695312 11.203125 76.066406 C 10.710938 74.4375 10.296875 72.785156 9.964844 71.117188 C 9.632812 69.445312 9.382812 67.761719 9.214844 66.066406 C 9.046875 64.375 8.964844 62.675781 8.964844 60.972656 C 8.964844 59.269531 9.046875 57.570312 9.214844 55.875 C 9.382812 54.179688 9.632812 52.496094 9.964844 50.824219 C 10.296875 49.15625 10.710938 47.503906 11.203125 45.875 C 11.699219 44.246094 12.273438 42.644531 12.925781 41.070312 C 13.574219 39.496094 14.304688 37.957031 15.105469 36.457031 C 15.910156 34.953125 16.785156 33.496094 17.730469 32.078125 C 18.675781 30.664062 19.6875 29.296875 20.769531 27.980469 C 21.851562 26.664062 22.992188 25.402344 24.195312 24.199219 C 25.402344 22.992188 26.660156 21.851562 27.980469 20.769531 C 29.296875 19.691406 30.660156 18.675781 32.078125 17.730469 C 33.492188 16.785156 34.953125 15.910156 36.457031 15.105469 C 37.957031 14.304688 39.496094 13.578125 41.070312 12.925781 C 42.640625 12.273438 44.242188 11.699219 45.875 11.207031 C 47.503906 10.710938 49.152344 10.296875 50.824219 9.964844 C 52.496094 9.632812 54.175781 9.382812 55.871094 9.21875 C 57.566406 9.050781 59.265625 8.964844 60.96875 8.964844 C 62.671875 8.964844 64.371094 9.050781 66.066406 9.21875 C 67.761719 9.382812 69.445312 9.632812 71.117188 9.964844 C 72.785156 10.296875 74.4375 10.710938 76.066406 11.207031 C 77.695312 11.699219 79.296875 12.273438 80.871094 12.925781 C 82.445312 13.578125 83.984375 14.304688 85.484375 15.105469 C 86.988281 15.910156 88.445312 16.785156 89.863281 17.730469 C 91.277344 18.675781 92.644531 19.691406 93.960938 20.769531 C 95.277344 21.851562 96.539062 22.992188 97.742188 24.199219 C 98.945312 25.402344 100.089844 26.664062 101.167969 27.980469 C 102.25 29.296875 103.265625 30.664062 104.210938 32.078125 C 105.15625 33.496094 106.03125 34.953125 106.832031 36.457031 C 107.636719 37.957031 108.363281 39.496094 109.015625 41.070312 C 109.667969 42.644531 110.242188 44.246094 110.734375 45.875 C 111.230469 47.503906 111.644531 49.15625 111.976562 50.824219 C 112.308594 52.496094 112.558594 54.179688 112.722656 55.875 C 112.890625 57.570312 112.972656 59.269531 112.972656 60.972656 Z M 112.972656 60.972656 "/></g><path style=" stroke:none;fill-rule:nonzero;fill:#fffff0;fill-opacity:1;" d="M 52.878906 41.621094 L 48.574219 43.527344 C 48.394531 43.605469 48.195312 43.460938 48.214844 43.265625 L 49.382812 30.648438 C 49.402344 30.453125 49.203125 30.308594 49.023438 30.390625 L 45.726562 31.855469 L 41.578125 33.699219 C 41.484375 33.738281 41.425781 33.832031 41.425781 33.933594 L 41.539062 50.453125 C 41.539062 50.640625 41.730469 50.765625 41.898438 50.691406 L 46.214844 48.769531 C 46.382812 48.695312 46.574219 48.820312 46.574219 49.007812 L 46.535156 62.914062 C 46.535156 63.054688 46.621094 63.140625 46.726562 63.167969 C 46.847656 63.195312 46.988281 63.144531 47.035156 62.992188 L 53.226562 41.929688 C 53.289062 41.722656 53.078125 41.535156 52.878906 41.621094 Z M 52.878906 41.621094 "/><path style=" stroke:none;fill-rule:nonzero;fill:#fffff0;fill-opacity:1;" d="M 81.253906 41.621094 L 76.949219 43.527344 C 76.773438 43.605469 76.574219 43.460938 76.59375 43.265625 L 77.761719 30.648438 C 77.777344 30.453125 77.578125 30.308594 77.402344 30.390625 L 74.105469 31.855469 L 69.957031 33.699219 C 69.863281 33.738281 69.804688 33.832031 69.804688 33.933594 L 69.914062 50.453125 C 69.917969 50.640625 70.105469 50.765625 70.273438 50.691406 L 74.59375 48.769531 C 74.761719 48.695312 74.953125 48.820312 74.953125 49.007812 L 74.910156 62.914062 C 74.910156 63.054688 75 63.140625 75.105469 63.167969 C 75.226562 63.195312 75.367188 63.144531 75.410156 62.992188 L 81.605469 41.929688 C 81.664062 41.722656 81.453125 41.535156 81.253906 41.621094 Z M 81.253906 41.621094 "/><path style=" stroke:none;fill-rule:nonzero;fill:#fffff0;fill-opacity:1;" d="M 99.863281 63.003906 C 96.597656 60.734375 92.523438 60.050781 88.699219 61.125 C 87.773438 61.386719 87.234375 62.347656 87.492188 63.273438 C 87.753906 64.195312 88.710938 64.734375 89.640625 64.476562 C 90.421875 64.253906 91.21875 64.136719 92.015625 64.113281 C 88.019531 77.890625 75.449219 87.394531 60.96875 87.394531 C 46.488281 87.394531 33.917969 77.890625 29.925781 64.113281 C 30.71875 64.136719 31.515625 64.253906 32.300781 64.476562 C 33.222656 64.734375 34.183594 64.195312 34.445312 63.273438 C 34.707031 62.347656 34.167969 61.386719 33.242188 61.125 C 29.414062 60.050781 25.34375 60.734375 22.078125 63.003906 C 21.289062 63.550781 21.09375 64.632812 21.640625 65.421875 C 21.976562 65.910156 22.519531 66.171875 23.070312 66.171875 C 23.414062 66.171875 23.757812 66.070312 24.0625 65.859375 C 24.8125 65.335938 25.621094 64.929688 26.464844 64.636719 C 30.746094 80.140625 44.777344 90.875 60.96875 90.875 C 77.164062 90.875 91.195312 80.140625 95.476562 64.640625 C 96.316406 64.929688 97.128906 65.335938 97.878906 65.859375 C 98.179688 66.070312 98.527344 66.171875 98.871094 66.171875 C 99.421875 66.171875 99.960938 65.910156 100.300781 65.421875 C 100.847656 64.632812 100.652344 63.550781 99.863281 63.003906 Z M 99.863281 63.003906 "/><g clip-rule="nonzero" clip-path="url(#e94e1d3d6f)"><path style=" stroke:none;fill-rule:nonzero;fill:#fffff0;fill-opacity:1;" d="M 61.027344 8.421875 C 32.066406 8.421875 8.589844 31.898438 8.589844 60.859375 C 8.589844 89.820312 32.066406 113.296875 61.027344 113.296875 C 89.988281 113.296875 113.464844 89.820312 113.464844 60.859375 C 113.464844 31.898438 89.988281 8.421875 61.027344 8.421875 Z M 61.027344 102.808594 C 37.859375 102.808594 19.078125 84.027344 19.078125 60.859375 C 19.078125 37.691406 37.859375 18.910156 61.027344 18.910156 C 84.195312 18.910156 102.976562 37.691406 102.976562 60.859375 C 102.976562 84.027344 84.195312 102.808594 61.027344 102.808594 Z M 61.027344 102.808594 "/></g><g clip-rule="nonzero" clip-path="url(#80968c456d)"><path style=" stroke:none;fill-rule:nonzero;fill:#5ce1e6;fill-opacity:1;" d="M 60.953125 8.136719 C 31.832031 8.136719 8.132812 31.832031 8.132812 60.957031 C 8.132812 90.078125 31.832031 113.777344 60.953125 113.777344 C 90.078125 113.777344 113.773438 90.078125 113.773438 60.957031 C 113.773438 31.832031 90.078125 8.136719 60.953125 8.136719 Z M 60.953125 107.171875 C 35.46875 107.171875 14.738281 86.433594 14.738281 60.957031 C 14.738281 35.476562 35.46875 14.738281 60.953125 14.738281 C 86.441406 14.738281 107.171875 35.476562 107.171875 60.957031 C 107.171875 86.433594 86.441406 107.171875 60.953125 107.171875 Z M 60.953125 107.171875 "/></g></g></g></g></svg>